# xmcd
#
# Track frame offsets: 
#        150
#        16789
#        32842
#        46482
#        64235
#        87334
#        107797
#        128199
#        154527
#        177046
#        197189
#
# Disc length: 2802 seconds
#
# Revision: 0
# Processed by: cddbd v1.5.2PL0 Copyright (c) Steve Scherf et al.
# Submitted via: ExactAudioCopy v1.1
#
DISCID=8c0af00b
DTITLE=Cree Rider Family Band - Let The River Rise
DYEAR=2015
DGENRE=Country
TTITLE0=Family Band
TTITLE1=Tell Me Is That Right
TTITLE2=Knock Down These Walls
TTITLE3=Lonesome When I'm Gone
TTITLE4=County Line
TTITLE5=St. Louis Polly
TTITLE6=Miss Cooper
TTITLE7=Two Foxes
TTITLE8=Poppies and The Marigolds
TTITLE9=Notebook Of My Mind
TTITLE10=You Don't Love Me No More
EXTD=
EXTT0=
EXTT1=
EXTT2=
EXTT3=
EXTT4=
EXTT5=
EXTT6=
EXTT7=
EXTT8=
EXTT9=
EXTT10=
PLAYORDER=
